# xmcd
#
# Track frame offsets: 
#        150
#        15939
#        33845
#        48871
#        71723
#        86645
#        103258
#        119477
#        143765
#        160680
#        175804
#
# Disc length: 2558 seconds
#
# Revision: 2
# Processed by: cddbd v1.5.2PL0 Copyright (c) Steve Scherf et al.
# Submitted via: ExactAudioCopy v1.0b6
#
DISCID=8709fc0b
DTITLE=Cajun Dance Party - The Colourful Life [2008 XL Recordings (Jap
DTITLE=an) CD]
DYEAR=2008
DGENRE=Rock
TTITLE0=Colourful Life
TTITLE1=The Race
TTITLE2=Time Falls
TTITLE3=The Next Untouchable
TTITLE4=No Joanna
TTITLE5=Amylase
TTITLE6=The Firework 
TTITLE7=Buttercups
TTITLE8=The Hill, The View and The Lights
TTITLE9=Yesterday I Lost My Heart
TTITLE10=The Parachute
EXTD=YEAR: 2008
EXTT0=
EXTT1=
EXTT2=
EXTT3=
EXTT4=
EXTT5=
EXTT6=
EXTT7=
EXTT8=
EXTT9=
EXTT10=
PLAYORDER=
